<svg xmlns="http://www.w3.org/2000/svg" xmlns:xlink="http://www.w3.org/1999/xlink" viewBox="0,0,256,256" width="1600px" height="1600px"><g fill="#0397d8" fill-rule="nonzero" stroke="none" stroke-width="1" stroke-linecap="butt" stroke-linejoin="miter" stroke-miterlimit="10" stroke-dasharray="" stroke-dashoffset="0" font-family="none" font-weight="none" font-size="none" text-anchor="none" style="mix-blend-mode: normal"><path d="M0,256v-256h256v256z" id="bgRectangle"></path></g><g fill="none" fill-rule="nonzero" stroke="none" stroke-width="1" stroke-linecap="butt" stroke-linejoin="miter" stroke-miterlimit="10" stroke-dasharray="" stroke-dashoffset="0" font-family="none" font-weight="none" font-size="none" text-anchor="none" style="mix-blend-mode: normal"><g transform="scale(2,2)"><path d="M37,76.9h-3c-3.3,0 -6,-2.7 -6,-6v-14c0,-3.3 2.7,-6 6,-6l0.1,-2.8v0c1.7,0 3,1.3 3,3z" fill="#a4f4c4"></path><path d="M91,76.9h3c3.3,0 6,-2.7 6,-6v-14c0,-3.3 -2.7,-6 -6,-6v0h-3z" fill="#06a18c"></path><path d="M74.2,26.6l-3.3,-1.1c-2.2,-0.5 -4.5,-0.8 -6.8,-0.8c-2.3,0 -4.6,0.3 -6.8,0.8l-3.3,1c-8.2,3.1 -13.8,9.9 -13.8,17.8c0,0.1 47.9,0 47.9,0c-0.1,-7.8 -5.8,-14.6 -13.9,-17.7z" fill="#8fe5b5"></path><path d="M57.3,28.5c-0.8,0 -1.5,-0.3 -2.1,-0.9l-6,-6c-1.2,-1.2 -1.2,-3.1 0,-4.2c1.2,-1.2 3.1,-1.2 4.2,0l6,6c1.2,1.2 1.2,3.1 0,4.2c-0.6,0.6 -1.4,0.9 -2.1,0.9z" fill="#444b54"></path><path d="M64.1,24.7v0c-1.2,0 -2.4,0.1 -3.6,0.2c-0.4,0.1 -0.8,0.1 -1.2,0.2c14.2,0.5 18.7,11.4 18.7,19.2c0,0 8.7,0 9.9,0c0.1,0 0.1,0 0.1,0c0,-0.5 0,-1 -0.1,-1.5c0,-0.5 -0.1,-1 -0.2,-1.4c-0.2,-0.9 -0.4,-1.9 -0.8,-2.8c-0.5,-1.3 -1.2,-2.6 -2,-3.8c-1.2,-1.7 -2.7,-3.3 -4.4,-4.7c-1.8,-1.4 -4,-2.6 -6.3,-3.5l-3.3,-1.1c-2.2,-0.5 -4.5,-0.8 -6.8,-0.8" fill="#4ac3a0"></path><path d="M56.6,24.8l-4.5,-0.1c0.7,0 3.7,0 4.5,0.1z" fill="#8fe5b5"></path><path d="M57,33.1c-1.5464,0 -2.8,1.2536 -2.8,2.8c0,1.5464 1.2536,2.8 2.8,2.8c1.5464,0 2.8,-1.2536 2.8,-2.8c0,-1.5464 -1.2536,-2.8 -2.8,-2.8zM71.1,33.1c-1.5464,0 -2.8,1.2536 -2.8,2.8c0,1.5464 1.2536,2.8 2.8,2.8c1.5464,0 2.8,-1.2536 2.8,-2.8c0,-1.5464 -1.2536,-2.8 -2.8,-2.8z" fill="#ffffff"></path><path d="M40.1,80.9c0,4.6 3.8,8.4 8.4,8.4v14.8c0,2.7 2.5,4.9 5.6,4.9c3.1,0 5.6,-2.2 5.6,-4.9v-14.8h8.5v14.8c0,2.7 2.5,4.9 5.6,4.9c3.1,0 5.6,-2.2 5.6,-4.9v-14.8v0c4.7,0 8.5,-3.8 8.5,-8.4v-29.7c0,-1.7 -1.3,-3 -3,-3h-41.8c-1.7,0 -3,1.3 -3,3v29.7zM48.5,89.3v14.8c0,2.7 2.5,4.9 5.6,4.9" fill="#8fe5b5"></path><path d="M59.7,89.5c-3.8,4 -7.6,7.3 -11.2,9.9v4.7c0,2.7 2.5,4.9 5.6,4.9c3.1,0 5.6,-2.2 5.6,-4.9v-14.6M84.9,48.2h-6.9c0,12.5 -4.2,24.7 -12.1,34.4c-2,2.5 -4,4.7 -5.9,6.7h8.3v14.8c0,0.8 0.2,1.6 0.6,2.3c0.1,0.3 0.4,0.5 0.6,0.8c1,1.1 2.6,1.8 4.3,1.8c3.1,0 5.6,-2.2 5.6,-4.9v-14.8c4.7,0 8.5,-3.8 8.5,-8.4v-29.7c0,-1.7 -1.3,-3 -3,-3" fill="#4ac3a0"></path><path d="M73.9,112c-4.8,0 -8.6,-3.6 -8.6,-7.9v-11.8h-2.5v11.8c0,4.4 -3.9,7.9 -8.6,7.9c-1.7,0 -3,-1.3 -3,-3c0,-1.7 1.3,-3 3,-3c1.4,0 2.6,-0.9 2.6,-1.9v-14.8c0,-1.7 1.3,-3 3,-3h8.5c1.7,0 3,1.3 3,3v14.8c0,1 1.2,1.9 2.6,1.9c1.4,0 2.6,-0.9 2.6,-1.9v-14.8c0,-1.7 1.3,-3 3,-3c3,0 5.5,-2.4 5.5,-5.4v-4v0v-16c0,-1.7 1.3,-3 3,-3v0c1.7,0 3,1.3 3,3v13h3.3c1.4,0 2.6,-0.9 2.6,-1.9v-15.1c0,-0.8 -0.3,-1.6 -0.9,-2.1c-0.6,-0.6 -1.3,-0.9 -2.1,-0.9v0c-1.7,0 -3,-1.3 -3,-3c0,-1.7 1.3,-3 3,-3v0c2.4,0 4.7,0.9 6.4,2.6c1.7,1.7 2.6,4 2.6,6.4v15.1c0,4.4 -3.9,7.9 -8.6,7.9h-3.3v1c0,5.3 -3.6,9.7 -8.5,11v12.2c0,4.3 -3.9,7.9 -8.6,7.9zM48.5,92.3v0c-6.3,0 -11.4,-5.1 -11.4,-11.4l-0.1,-19.9c0,-1.7 1.3,-3 3,-3v0c1.7,0 3,1.3 3,3l0.1,19.9c0,3 2.4,5.4 5.4,5.4c1.7,0 3,1.4 3,3c0,1.7 -1.3,3 -3,3zM87.7,44.5c-1.4,0 -2.7,-1 -2.9,-2.5c-1,-5.4 -5.3,-10.2 -11.6,-12.6l-3.1,-1c-3.9,-0.9 -8,-0.9 -12,0l-3.2,1c-6.3,2.4 -10.6,7.1 -11.6,12.6c-0.3,1.6 -1.9,2.7 -3.5,2.4c-1.6,-0.3 -2.7,-1.9 -2.4,-3.5c1.4,-7.5 7.2,-13.9 15.4,-17.1c0.1,0 0.1,0 0.2,-0.1l3.3,-1c0.1,0 0.1,0 0.2,-0.1c4.9,-1.2 10.1,-1.2 15,0c0.1,0 0.1,0 0.2,0.1l3.3,1.1c0.1,0 0.1,0 0.2,0.1c8.3,3.2 14,9.6 15.4,17.2c0.3,1.6 -0.8,3.2 -2.4,3.5c-0.1,-0.2 -0.3,-0.1 -0.5,-0.1z" fill="#444b54"></path><path d="M70.9,28.5c-0.8,0 -1.5,-0.3 -2.1,-0.9c-1.2,-1.2 -1.2,-3.1 0,-4.2l6.1,-6c1.2,-1.2 3.1,-1.2 4.2,0c1.1,1.2 1.2,3.1 0,4.2l-6.1,6c-0.6,0.6 -1.4,0.9 -2.1,0.9zM95,112h-40.9c-1.7,0 -3,-1.3 -3,-3c0,-1.7 1.3,-3 3,-3h40.9c1.7,0 3,1.3 3,3c0,1.7 -1.3,3 -3,3zM110,112c-0.2,0 -0.4,0 -0.6,-0.1c-0.2,0 -0.4,-0.1 -0.6,-0.2c-0.2,-0.1 -0.3,-0.2 -0.5,-0.3c-0.2,-0.1 -0.3,-0.2 -0.5,-0.4c-0.6,-0.6 -0.9,-1.3 -0.9,-2.1c0,-0.2 0,-0.4 0.1,-0.6c0,-0.2 0.1,-0.4 0.2,-0.6c0.1,-0.2 0.2,-0.3 0.3,-0.5c0.1,-0.2 0.2,-0.3 0.4,-0.5c0.2,-0.2 0.3,-0.3 0.5,-0.4c0.2,-0.1 0.3,-0.2 0.5,-0.3c0.2,-0.1 0.4,-0.1 0.6,-0.2c0.4,-0.1 0.8,-0.1 1.2,0c0.2,0 0.4,0.1 0.6,0.2c0.2,0.1 0.4,0.2 0.5,0.3c0.2,0.1 0.3,0.2 0.5,0.4c0.1,0.1 0.3,0.3 0.4,0.5c0.1,0.2 0.2,0.3 0.3,0.5c0.1,0.2 0.1,0.4 0.2,0.6c0,0.2 0.1,0.4 0.1,0.6c0,0.8 -0.3,1.6 -0.9,2.1c-0.1,0.1 -0.3,0.3 -0.5,0.4c-0.2,0.1 -0.3,0.2 -0.5,0.3c-0.2,0.1 -0.4,0.1 -0.6,0.2c-0.4,0.1 -0.6,0.1 -0.8,0.1zM40,80h-6c-5,0 -9,-4 -9,-9v-14c0,-5 4,-9 9,-9c1.7,0 3,1.3 3,3c0,1.7 -1.3,3 -3,3c-1.7,0 -3,1.3 -3,3v14c0,1.7 1.3,3 3,3h6c1.7,0 3,1.3 3,3c0,1.7 -1.3,3 -3,3z" fill="#444b54"></path><path d="M54.1,112c-4.8,0 -8.6,-3.6 -8.6,-7.9v-14.8c0,-1.7 1.3,-3 3,-3c1.7,0 3,1.3 3,3v14.8c0,1 1.2,1.9 2.6,1.9c1.7,0 3,1.3 3,3c0,1.7 -1.3,3 -3,3z" fill="#444b54"></path></g></g></svg>